<?xml version="1.0" encoding="utf-8" ?><svg xmlns="http://www.w3.org/2000/svg" xmlns:xlink="http://www.w3.org/1999/xlink" width="500" height="500" viewBox="0 0 500 500"><path fill="#F3B733" d="M240.624 58.2965C346.509 53.119 436.525 134.795 441.636 240.683C446.747 346.571 365.014 436.536 259.123 441.58C153.326 446.62 63.4583 364.976 58.3521 259.182C53.2459 153.389 134.833 63.4693 240.624 58.2965Z"/><path fill="#59309C" d="M244.572 102.756C247.723 102.958 250.063 102.852 253.112 102.919C254.416 104.316 254.509 104.687 255.169 106.467C254.183 109.117 254.613 110.533 254.447 113.245C253.835 123.295 256.676 133.081 258.587 142.852C259.852 149.323 260.635 155.95 263.693 161.879C266.954 168.203 270.037 175.154 273.993 181.052L275.366 182.698C276.36 183.811 277.688 186.673 278.661 188.169L287.671 198.6L289.254 199.808L289.482 200.072C290.905 201.752 292.086 204.995 293.932 204.954C294.873 205.958 295.685 207.426 296.696 208.313C305.785 216.293 314.531 226.101 325.847 230.908C330.934 233.069 334.807 235.282 340.366 235.484C341.379 235.521 343.463 236.715 344.46 237.067C351.325 240.359 358.494 243.043 365.858 244.983C368.415 245.656 369.423 246.384 371.608 244.579C375.033 245.695 382.008 245.45 385.765 245.189C387.697 245.078 393.811 244.653 395.119 245.609L395.125 246.161L394.794 246.477C394.417 246.841 394.36 246.896 394.098 247.369C394.455 248.861 396.294 249.695 395.881 251.402L395.399 251.758C394.828 253.38 394.482 254.161 393.706 255.7C391.305 255.813 388.469 256.016 386.099 255.965C383.397 255.978 380.677 256.047 377.978 256.017C375.423 255.989 373.702 256.564 371.516 255.044L371.208 255.121C371.363 255.743 371.435 256 371.494 256.633L369.934 256.743C369.464 255.64 370.265 255.579 369.707 254.642L369.123 254.695L368.9 255.225L367.782 255.847C366.317 255.552 364.595 256.443 363.514 257.391C362.611 258.004 358.735 257.991 357.347 258.058C353.06 258.455 347.98 258.676 343.786 259.996C335.667 262.55 327.846 267.82 320.32 271.832C317.867 273.139 315.335 276.13 312.878 277.607C306.969 281.485 302.138 284.944 296.991 289.82C296.045 291.353 295.182 292.852 293.909 294.143C293.719 294.56 293.449 295.284 293.164 295.581C292.381 296.757 291.139 298.715 290.007 299.514C289.406 300.106 288.654 300.893 288.037 301.436L287.543 301.802C285.941 303.426 283.79 305.775 282.163 307.288C278.267 311.962 261.91 335.554 261.811 340.481L261.348 341.144C260.341 343.827 258.347 352.588 256.162 355.02C256.033 355.165 255.484 355.095 254.859 355.854C255.526 356.037 255.825 356.087 256.44 356.408C256.484 357.784 254.796 361.329 253.784 362.284C253.298 363.14 253.153 363.044 253.269 363.815C253.954 363.997 254.253 364.06 254.909 364.347C254.83 365.331 253.796 365.907 253.036 366.49C254.469 370.466 253.76 372.707 253.777 376.906C253.795 381.477 254.047 386.033 254.272 390.597C254.073 392.528 254.169 394.874 252.88 396.132C251.645 396.536 251.208 396.288 249.799 395.933C248.154 395.928 244.046 397.261 244.436 393.734L244.186 391.845C243.197 383.405 245.584 372.993 243.537 364.824C242.326 361.282 241.308 357.51 239.962 353.965C239.479 352.693 240.09 351.682 239.224 350.492C238.661 349.452 238.262 348.345 237.826 347.244C237.192 345.849 236.577 343.407 236.136 341.851C236.074 341.163 236.02 341.077 236.176 340.417C236.933 339.991 236.988 340.209 238.115 340.515L238.188 340.244C237.805 338.65 237.326 338.394 235.836 338.209L235.77 337.943L236.637 337.057C235.575 336.538 234.367 336.49 233.61 335.617C233.945 332.426 231.378 328.457 229.883 325.556C230.025 324.167 229.214 324.103 229.176 322.937C227.916 319.558 228.782 320.53 226.429 317.116C224.266 316.614 225.279 315.607 222.541 315.691C220.99 313.809 219.29 311.585 218.087 309.469C216.412 306.525 215.241 303.87 213.268 301.085C212.38 300.048 213.246 299.567 212.131 298.404C211.638 298.282 211.367 298.311 210.862 298.364L210.477 297.763C208.599 295.004 206.317 293.124 204.152 289.823C203.152 289.148 202.562 288.507 201.708 287.669C198.35 284.436 191.848 279.418 188.162 276.702C186.611 275.864 185.373 275.205 183.917 274.219L180.688 272.176C179.341 271.496 174.667 269.28 173.835 268.443C171.223 267.961 169.872 266.875 167.626 265.502C166.377 266.032 165.963 265.549 164.395 265.095C164.122 264.546 164.153 264.502 163.688 264.122C161.991 264.36 162.139 264.491 160.904 263.452C160.567 263.308 152.81 261.71 152.709 261.718C152.4 261.848 152.247 261.838 151.906 261.889L151.133 261.288L150.6 260.974L149.904 261.232C148.595 260.965 139.955 258.715 139.247 258.377L139.192 258.094L140.218 257.379C139.821 256.934 139.261 256.964 138.529 256.805C138.392 257.488 138.436 257.482 138.033 258.035C137.047 258.437 135.677 258.029 134.489 257.874C134.059 256.91 133.633 255.891 132.741 255.341L132.186 255.513C132.454 256.538 132.675 257.02 131.773 257.899C131.009 257.999 130.7 257.94 130.162 257.239C129.466 257.027 129.339 257.021 128.608 256.943C127.696 257.39 127.504 257.552 126.523 257.629C124.078 255.617 123.066 257.955 119.774 255.478L119.596 255.34C118.608 256.141 118.629 256.417 117.546 255.811C115.988 255.163 115.858 256.203 114.296 255.465C112.691 255.086 111.777 255.025 110.182 255.45C108.323 255.607 106.558 255.608 104.93 254.657C102.18 252.113 103.551 249.129 103.245 245.353C104.643 245.389 105.155 245.402 106.567 245.197C108.711 244.785 110.123 244.931 112.293 244.881L123.185 244.692C124.316 244.668 125.572 243.54 126.526 243.5C129.997 243.355 132.363 243.255 135.779 242.616L136.794 242.444C139.499 241.942 139.951 241.231 142.609 241.541C143.066 241.902 143.389 242.071 143.919 242.315C144.63 240.664 148.634 238.49 150.177 238.863L150.101 239.842L150.483 240.031L151.099 239.801C151.457 238.494 151.359 238.474 152.635 238.024C153.981 238.33 152.596 238.074 153.345 239.222C154.808 238.739 155.267 236.644 157.256 236.322L157.418 236.49C156.954 237.01 156.834 237.157 156.456 237.74L156.613 238.043L157.111 238.178C158.622 237.474 158.468 236.702 159.441 235.961C162.7 233.475 162.047 235.606 163.6 235.697C164.671 235.098 164.474 235.078 165.136 233.8C166.297 233.119 168.24 231.88 169.543 231.926L169.82 232.508C170.465 232.184 169.954 232.471 170.373 232.181C173.765 229.834 178.535 228.384 182.083 226.506C185.894 224.488 189.812 222.217 193.571 220.125C196.652 218.64 199.069 215.871 201.514 213.52C211.535 204.055 220.162 193.215 227.137 181.326C228.31 179.146 230.162 175.918 231.174 173.836C231.579 173.003 232.755 168.636 233.12 167.48C234.155 164.226 235.379 161.034 236.784 157.921C238.96 151.185 241.594 140.327 242.477 133.426C242.54 131.913 243.404 127.397 243.729 125.925C244.149 123.025 243.811 120.347 245.92 118.71L245.808 118.301L244.792 118.158C244.021 117.011 244.469 104.897 244.572 102.756Z"/><path fill="#865185" d="M273.993 181.052L275.366 182.698C276.36 183.811 277.688 186.673 278.661 188.169L287.671 198.6L289.254 199.808C288.944 202.428 291.377 202.91 290.038 204.052L289.13 203.978C287.989 203.395 286.851 202.804 285.716 202.206C283.96 201.004 280.906 196.679 279.763 194.803C278.599 193.883 278.533 190.168 275.908 188.383L275.518 188.122C274.649 186.458 273.604 182.9 273.993 181.052Z"/><path fill="#935D7C" d="M279.763 194.803L280.31 194.476C281.522 195.168 284.368 197.611 284.288 199.051C283.938 200.123 285.389 201.231 286.225 201.754L285.716 202.206C283.96 201.004 280.906 196.679 279.763 194.803Z"/><path fill="#935D7C" d="M287.671 198.6L289.254 199.808C288.944 202.428 291.377 202.91 290.038 204.052L289.13 203.978C288.249 202.116 287.32 200.669 287.671 198.6Z"/><path fill="#9A686F" d="M275.366 182.698C276.36 183.811 277.688 186.673 278.661 188.169C277.798 187.748 276.341 187.473 275.889 186.82C275.327 186.009 275.509 183.813 275.366 182.698Z"/><path fill="#714661" d="M286.225 201.754C285.389 201.231 283.938 200.123 284.288 199.051C285.372 199.557 285.572 199.576 286.298 200.47C286.516 201.419 286.599 201.013 286.225 201.754Z"/><path fill="#935D7C" d="M137.935 254.836L138.416 254.946C139.619 255.226 142.175 256.23 143.146 256.327C144.885 256.501 152.935 257.206 153.967 258.103C154.383 258.807 154.348 258.761 154.383 259.585C156.048 259.131 154.927 257.655 157.571 258.564L157.886 258.966C157.334 259.973 156.015 260.063 155.716 260.676C156.361 260.989 156.357 260.923 157.086 260.827C157.793 260.321 158.026 260.114 158.667 259.515C159.775 259.288 159.798 259.43 161.02 259.861C161.228 261.479 161.397 261.875 160.904 263.452C160.567 263.308 152.81 261.71 152.709 261.718C152.4 261.848 152.247 261.838 151.906 261.889L151.133 261.288L150.6 260.974L149.904 261.232C148.595 260.965 139.955 258.715 139.247 258.377L139.192 258.094L140.218 257.379C139.821 256.934 139.261 256.964 138.529 256.805L137.935 254.836Z"/><path fill="#563336" d="M151.133 261.288C151.489 260.392 151.769 259.26 152.551 258.817C153.117 259.982 152.06 260.115 152.709 261.718C152.4 261.848 152.247 261.838 151.906 261.889L151.133 261.288Z"/><path fill="#6B3C98" d="M193.571 220.125C193.174 221.607 193.521 221.093 192.495 221.826C193.108 222.434 192.974 222.084 192.988 222.878C192.39 223.86 191.549 224.443 190.66 225.193C189.639 225.901 186.492 227.509 185.338 227.671C182.287 227.48 175.084 232.906 171.37 232.359C170.627 232.622 170.644 232.62 170 233.081C169.812 232.63 169.847 232.827 169.82 232.508C170.465 232.184 169.954 232.471 170.373 232.181C173.765 229.834 178.535 228.384 182.083 226.506C185.894 224.488 189.812 222.217 193.571 220.125Z"/><path fill="#CEA09F" d="M185.338 227.671C185.645 226.941 185.89 226.363 186.611 226.014C187.66 225.507 189.42 223.515 190.599 223.501C191.03 224.158 190.833 224.15 190.66 225.193C189.639 225.901 186.492 227.509 185.338 227.671Z"/><path fill="#9A686F" d="M213.268 301.085L214.05 301.559C217.848 301.794 216.252 305.216 220.682 306.793C222.189 308.9 223.763 311.468 225.738 313.041C225.92 314.013 226.386 316.245 226.429 317.116C224.266 316.614 225.279 315.607 222.541 315.691C220.99 313.809 219.29 311.585 218.087 309.469C216.412 306.525 215.241 303.87 213.268 301.085Z"/><path fill="#865185" d="M188.162 276.702C187.837 275.503 187.505 275.966 187.317 274.976C188.588 274.822 188.291 275.484 189.381 275.167C192.538 277.418 195.768 279.271 198.909 281.514C200.429 282.599 204.263 286.89 205.505 287.459L205.039 287.754L204.267 287.574C204.369 288.656 204.429 288.803 204.152 289.823C203.152 289.148 202.562 288.507 201.708 287.669C198.35 284.436 191.848 279.418 188.162 276.702Z"/><path fill="#BB7E66" d="M201.708 287.669C202.632 287.293 202.518 287.103 203.266 286.176C203.92 286.607 203.848 286.781 204.267 287.574C204.369 288.656 204.429 288.803 204.152 289.823C203.152 289.148 202.562 288.507 201.708 287.669Z"/><path fill="#865185" d="M161.02 259.861C163.149 260.166 163.991 260.441 166.036 261.224L167.455 261.873C168.736 262.432 169.685 262.759 170.775 263.645C171.403 264.225 172.293 265.114 172.992 265.547C174.115 266.69 173.961 266.782 173.835 268.443C171.223 267.961 169.872 266.875 167.626 265.502C166.377 266.032 165.963 265.549 164.395 265.095C164.122 264.546 164.153 264.502 163.688 264.122C161.991 264.36 162.139 264.491 160.904 263.452C161.397 261.875 161.228 261.479 161.02 259.861Z"/><path fill="#865185" d="M170.775 263.645C171.403 264.225 172.293 265.114 172.992 265.547C174.115 266.69 173.961 266.782 173.835 268.443C171.223 267.961 169.872 266.875 167.626 265.502C167.506 264.866 167.487 264.904 167.635 264.28C168.809 263.585 169.35 264.514 170.775 263.645Z"/><path fill="#935D7C" d="M167.455 261.873C168.736 262.432 169.685 262.759 170.775 263.645C169.35 264.514 168.809 263.585 167.635 264.28C167.487 264.904 167.506 264.866 167.626 265.502C166.377 266.032 165.963 265.549 164.395 265.095L165.54 265.052C166.115 264.624 165.931 264.73 166.075 263.773C166.945 263.087 166.96 262.912 167.455 261.873Z"/><path fill="#935D7C" d="M166.036 261.224L167.455 261.873C166.96 262.912 166.945 263.087 166.075 263.773C165.545 262.577 165.184 262.273 166.036 261.224Z"/><path fill="#865185" d="M227.137 181.326C228.31 179.146 230.162 175.918 231.174 173.836C231.579 173.003 232.755 168.636 233.12 167.48C234.155 164.226 235.379 161.034 236.784 157.921C236.628 160.57 236.521 162.148 235.721 164.68C234.378 168.932 231.988 171.561 232.649 176.22C233.49 178.019 233.802 178.398 232.501 180.068C230.298 181.64 229.43 179.521 227.137 181.326Z"/><path fill="#BB7E66" d="M232.649 176.22C233.49 178.019 233.802 178.398 232.501 180.068C231.612 179.897 231.615 179.867 231.252 179.142C231.255 177.917 231.873 177.109 232.649 176.22Z"/><path fill="#6B3C98" d="M385.765 245.189C387.697 245.078 393.811 244.653 395.119 245.609L395.125 246.161L394.794 246.477C394.417 246.841 394.36 246.896 394.098 247.369C394.455 248.861 396.294 249.695 395.881 251.402L395.399 251.758C395.148 251.818 394.605 251.895 394.468 252.033L393.96 251.385L394.394 250.97L395.092 251.119L395.095 250.452C393.129 250.226 393.321 249.516 392.458 249.413C390.712 249.205 387.978 249.501 386.291 248.847C386.021 248.04 386.167 246.523 385.765 245.189Z"/><path fill="#9A686F" d="M205.505 287.459L206.151 287.212L206.606 287.416C206.629 288.173 206.611 288.12 206.19 288.761C206.957 289.654 206.894 289.493 208.148 289.495C209.835 290.516 210.134 291.688 211.039 293.498L211.803 294.849C212.115 295.99 212.149 296.069 212.101 297.231C211.735 297.178 211.225 296.992 210.92 297.212C210.607 297.438 210.714 297.361 210.477 297.763C208.599 295.004 206.317 293.124 204.152 289.823C204.429 288.803 204.369 288.656 204.267 287.574L205.039 287.754L205.505 287.459Z"/><path fill="#935D7C" d="M206.738 291.564C206.466 290.944 205.93 289.346 206.19 288.761C206.957 289.654 206.894 289.493 208.148 289.495C209.835 290.516 210.134 291.688 211.039 293.498L210.546 293.368C209.531 291.63 208.534 291.757 206.738 291.564Z"/><path fill="#865185" d="M206.738 291.564C208.534 291.757 209.531 291.63 210.546 293.368C210.159 293.902 210.17 294.013 209.587 294.268C208.728 294.012 207.841 292.638 207.041 291.858L206.738 291.564Z"/><path fill="#935D7C" d="M248.731 392.381C251.213 392.639 253.304 393.016 254.272 390.597C254.073 392.528 254.169 394.874 252.88 396.132C251.645 396.536 251.208 396.288 249.799 395.933C248.154 395.928 244.046 397.261 244.436 393.734L244.186 391.845C244.768 392.757 244.513 392.642 245.356 393.064C246.122 392.783 246.279 392.586 246.885 392.064C247.473 392.158 248.161 392.247 248.731 392.381Z"/><path fill="#A97170" d="M247.853 392.525C248.649 392.722 249.465 392.74 250.117 393.109C249.293 394.003 249.068 393.875 248.946 394.847C249.297 395.34 249.391 395.49 249.799 395.933C248.154 395.928 244.046 397.261 244.436 393.734L245.244 394.437C246.44 393.735 246.396 393.058 247.853 392.525Z"/><path fill="#BB7E66" d="M245.244 394.437C246.44 393.735 246.396 393.058 247.853 392.525C247.965 393.873 247.405 394.591 246.141 395.186L245.551 395.151C245.322 394.762 245.308 394.851 245.244 394.437Z"/><path fill="#CEA09F" d="M253.111 392.937C253.278 393.135 253.348 393.37 253.461 393.625C253.334 394.529 253.05 394.757 252.488 395.473L252.095 394.969C252.103 394.082 252.564 393.667 253.111 392.937Z"/><path fill="#75428F" d="M172.992 265.547C177.164 264.818 177.327 266.796 179.602 268.866C182.102 271.994 182.476 270.444 185.443 272.751C185.458 272.758 185.473 272.765 185.488 272.772C185.104 273.167 184.76 273.573 184.435 274.018L183.917 274.219L180.688 272.176C179.341 271.496 174.667 269.28 173.835 268.443C173.961 266.782 174.115 266.69 172.992 265.547Z"/><path fill="#BB7E66" d="M125.786 254.492C127.095 254.443 128.761 254.072 130.459 253.992C130.77 254.785 131.337 255.292 132.186 255.513C132.454 256.538 132.675 257.02 131.773 257.899C131.009 257.999 130.7 257.94 130.162 257.239C129.466 257.027 129.339 257.021 128.608 256.943C127.696 257.39 127.504 257.552 126.523 257.629C124.078 255.617 123.066 257.955 119.774 255.478L119.596 255.34C118.608 256.141 118.629 256.417 117.546 255.811C117.988 255.626 118.725 254.958 119.226 254.937C122.218 254.812 122.794 255.333 125.786 254.492Z"/><path fill="#75428F" d="M125.786 254.492C127.095 254.443 128.761 254.072 130.459 253.992C130.77 254.785 131.337 255.292 132.186 255.513C132.454 256.538 132.675 257.02 131.773 257.899C131.009 257.999 130.7 257.94 130.162 257.239C129.822 256.849 126.349 254.788 125.786 254.492Z"/><path fill="#75428F" d="M229.176 322.937C232.017 324.513 232.218 326.96 233.466 329.577C233.836 330.354 236.107 331.696 236.174 332.647C236.251 333.735 236.609 336.052 236.637 337.057C235.575 336.538 234.367 336.49 233.61 335.617C233.945 332.426 231.378 328.457 229.883 325.556C230.025 324.167 229.214 324.103 229.176 322.937Z"/><path fill="#75428F" d="M388.35 254.427C389.706 248.614 391.134 252.527 393.96 251.385L394.468 252.033C394.605 251.895 395.148 251.818 395.399 251.758C394.828 253.38 394.482 254.161 393.706 255.7C391.305 255.813 388.469 256.016 386.099 255.965C387.198 255.774 387.843 255.891 388.077 254.747L388.35 254.427Z"/><path fill="#865185" d="M388.35 254.427C389.706 248.614 391.134 252.527 393.96 251.385L394.468 252.033C394.057 253.065 394.247 253.133 393.517 253.463C391.353 252.102 390.935 251.69 389.248 254.051L388.35 254.427Z"/><path fill="#9A686F" d="M239.224 350.492C240.213 349.96 240.185 349.752 241.075 349.865L241.379 350.458C241.889 352.438 241.88 353.355 242.085 355.358C242.158 356.068 243.432 356.674 243.475 356.918C243.811 358.803 244.115 359.67 243.583 361.486L243.643 360.977C243.189 362.354 243.406 363.371 243.537 364.824C242.326 361.282 241.308 357.51 239.962 353.965C239.479 352.693 240.09 351.682 239.224 350.492Z"/><path fill="#A97170" d="M287.613 299.223C288.761 299.164 288.917 299.164 290.007 299.514C289.406 300.106 288.654 300.893 288.037 301.436L287.543 301.802C285.941 303.426 283.79 305.775 282.163 307.288L282.071 306.503C281.642 305.09 283.533 302.171 284.287 300.76L284.795 299.7C286.197 299.871 286.464 299.945 287.613 299.223Z"/><path fill="#BB7E66" d="M287.613 299.223C288.761 299.164 288.917 299.164 290.007 299.514C289.406 300.106 288.654 300.893 288.037 301.436C286.473 301.488 285.577 301.695 284.287 300.76L284.795 299.7C286.197 299.871 286.464 299.945 287.613 299.223Z"/><path fill="#714661" d="M282.071 306.503C283.322 305.133 284.202 303.682 285.494 302.368C286.232 301.618 286.491 301.812 287.543 301.802C285.941 303.426 283.79 305.775 282.163 307.288L282.071 306.503Z"/><path fill="#865185" d="M103.245 245.353C104.643 245.389 105.155 245.402 106.567 245.197C105.218 247.397 107.6 250.432 105.159 251.434L103.905 251.178L103.894 251.573C104.466 252.104 104.959 252.286 105.412 252.869L105.678 252.883L105.246 253.529C105.478 254.145 105.347 253.972 105.836 254.37L104.93 254.657C102.18 252.113 103.551 249.129 103.245 245.353Z"/><path fill="#9A686F" d="M236.136 341.851C236.785 342.457 236.957 342.314 237.728 342.537C240.108 343.223 240.669 345.842 240.754 348.188C240.635 348.999 240.943 349.274 241.435 350.036L241.379 350.458L241.075 349.865C240.185 349.752 240.213 349.96 239.224 350.492C238.661 349.452 238.262 348.345 237.826 347.244C237.192 345.849 236.577 343.407 236.136 341.851Z"/><path fill="#865185" d="M237.826 347.244C238.393 346.747 238.069 346.891 238.841 346.824C239.43 347.335 240.008 348.013 240.754 348.188C240.635 348.999 240.943 349.274 241.435 350.036L241.379 350.458L241.075 349.865C240.185 349.752 240.213 349.96 239.224 350.492C238.661 349.452 238.262 348.345 237.826 347.244Z"/><path fill="#75428F" d="M130.459 253.992C131.914 253.87 135.999 255.001 137.935 254.836L138.529 256.805C138.392 257.488 138.436 257.482 138.033 258.035C137.047 258.437 135.677 258.029 134.489 257.874C134.059 256.91 133.633 255.891 132.741 255.341L132.186 255.513C131.337 255.292 130.77 254.785 130.459 253.992Z"/><path fill="#714661" d="M292.457 294.245L293.909 294.143C293.719 294.56 293.449 295.284 293.164 295.581C292.381 296.757 291.139 298.715 290.007 299.514C288.917 299.164 288.761 299.164 287.613 299.223L288.275 297.349L288.253 296.883C288.348 296.235 288.653 295.921 289.035 295.385C289.365 295.338 291.873 294.431 292.457 294.245Z"/><path fill="#CE9E58" d="M292.457 294.245L293.909 294.143C293.719 294.56 293.449 295.284 293.164 295.581C290.309 295.609 289.906 297.025 288.275 297.349L288.253 296.883C288.348 296.235 288.653 295.921 289.035 295.385C289.365 295.338 291.873 294.431 292.457 294.245Z"/><path fill="#714661" d="M252.207 357.885C252.333 357.435 252.358 357.51 252.665 357.106C253.715 356.732 254.203 356.684 254.859 355.854C255.526 356.037 255.825 356.087 256.44 356.408C256.484 357.784 254.796 361.329 253.784 362.284L253.555 361.351C252.834 360.42 252.081 359.093 252.207 357.885Z"/><path fill="#B68596" d="M252.207 357.885C253.068 358.634 254.139 359.36 254.473 360.379C254.215 361.155 254.429 360.788 253.555 361.351C252.834 360.42 252.081 359.093 252.207 357.885Z"/><path fill="#6B3C98" d="M136.794 242.444C139.499 241.942 139.951 241.231 142.609 241.541C143.066 241.902 143.389 242.071 143.919 242.315L143.768 242.843C141.361 243.69 139.468 244.693 136.919 244.436C137.274 243.422 137.098 243.386 136.794 242.444Z"/><path fill="#935D7C" d="M216.941 299.906C218.013 301.064 220.337 305.276 220.682 306.793C216.252 305.216 217.848 301.794 214.05 301.559C215.366 301.15 215.834 300.707 216.941 299.906Z"/><path fill="#6B3C98" d="M357.347 258.058C357.306 256.866 356.884 257.376 357.181 256.134C358.351 255.908 362.505 255.002 363.227 255.923C363.106 256.355 363.028 256.649 362.93 257.091L363.514 257.391C362.611 258.004 358.735 257.991 357.347 258.058Z"/><path fill="#935D7C" d="M243.729 125.925C243.568 128.357 245.739 130.532 244.918 133.878L244.5 134.188C243.997 134.015 242.845 133.533 242.477 133.426C242.54 131.913 243.404 127.397 243.729 125.925Z"/><path fill="#75428F" d="M292.457 294.245C292.665 293.544 292.889 293.007 292.85 292.28C292.205 292.074 291.797 292.032 291.408 291.491L291.575 291.157C292.856 290.456 295.544 289.869 296.991 289.82C296.045 291.353 295.182 292.852 293.909 294.143L292.457 294.245Z"/><path fill="#865185" d="M210.477 297.763C210.714 297.361 210.607 297.438 210.92 297.212C211.225 296.992 211.735 297.178 212.101 297.231C212.723 297.594 215.727 299.089 216.193 299.206L216.941 299.906C215.834 300.707 215.366 301.15 214.05 301.559L213.268 301.085C212.38 300.048 213.246 299.567 212.131 298.404C211.638 298.282 211.367 298.311 210.862 298.364L210.477 297.763Z"/><path fill="#6B3C98" d="M285.443 298.218C285.454 297.357 285.401 297.31 285.778 296.509C286.781 295.532 287.632 295.478 289.035 295.385C288.653 295.921 288.348 296.235 288.253 296.883L288.275 297.349L287.613 299.223C286.464 299.945 286.197 299.871 284.795 299.7C285.443 299.153 285.239 299.281 285.443 298.218Z"/><path fill="#75428F" d="M285.443 298.218C287.213 297.93 286.885 297.147 288.253 296.883L288.275 297.349L287.613 299.223C286.464 299.945 286.197 299.871 284.795 299.7C285.443 299.153 285.239 299.281 285.443 298.218Z"/><path fill="#75428F" d="M110.182 255.45L110.463 255.157C111.719 253.83 112.569 251.958 112.953 251.617C113.945 252.34 114.265 254.247 114.296 255.465C112.691 255.086 111.777 255.025 110.182 255.45Z"/><path fill="#935D7C" d="M185.488 272.772C186.776 273.643 188.309 274.425 189.381 275.167C188.291 275.484 188.588 274.822 187.317 274.976C187.505 275.966 187.837 275.503 188.162 276.702C186.611 275.864 185.373 275.205 183.917 274.219L184.435 274.018C184.76 273.573 185.104 273.167 185.488 272.772Z"/><path fill="#865185" d="M246.885 392.064C247.491 390.92 247.655 391.096 247.401 390.189C246.677 389.51 245.782 388.937 245.672 388.13C246.094 387.595 245.814 387.737 246.498 387.639C247.965 388.498 249.129 390.626 248.731 392.381C248.161 392.247 247.473 392.158 246.885 392.064Z"/><path fill="#935D7C" d="M211.803 294.849C213.091 295.635 215.551 297.873 216.193 299.206C215.727 299.089 212.723 297.594 212.101 297.231C212.149 296.069 212.115 295.99 211.803 294.849Z"/><path fill="#B68596" d="M135.779 242.616L136.794 242.444C137.098 243.386 137.274 243.422 136.919 244.436C136.489 244.709 136.196 244.851 135.741 245.089L135.334 244.947C135.378 243.925 135.966 243.382 135.779 242.616Z"/><path fill="#CEA09F" d="M105.678 252.883C106.784 253.03 106.654 252.84 107.368 253.447C107.063 254.185 106.606 254.185 105.836 254.37C105.347 253.972 105.478 254.145 105.246 253.529L105.678 252.883Z"/><path fill="#6B3C98" d="M213.209 274.159C213.799 274.151 213.894 274.174 214.481 274.248C216.122 275.446 217.602 278.259 219.22 279.668C220.09 280.426 220.574 280.328 220.905 281.42C219.604 281.671 218.293 281.022 217.024 280.559C216.06 279.399 213.321 275.506 213.209 274.159Z"/><path fill="#865185" d="M217.117 243.846C217.719 243.91 217.513 243.835 218.034 244.161C218.461 246.788 220.338 251.799 218.981 253.913L218.376 253.651C217.695 251.084 216.817 248.342 216.293 245.746C216.124 244.905 216.642 244.473 217.117 243.846Z"/><path fill="#6B3C98" d="M186.779 265.761C185.961 265.828 181.276 262.162 180.199 261.371L180.211 260.932C180.757 260.316 180.422 260.506 181.273 260.385C183.237 260.98 184.852 262.801 186.505 264.001C186.832 263.924 187.175 264.037 187.392 264.293C187.609 264.549 187.664 264.905 187.535 265.215C187.406 265.524 187.114 265.736 186.779 265.761Z"/><path fill="#865185" d="M186.505 264.001C186.832 263.924 187.175 264.037 187.392 264.293C187.609 264.549 187.664 264.905 187.535 265.215C187.406 265.524 187.114 265.736 186.779 265.761C186.314 265.797 185.9 265.469 185.828 265.008C185.757 264.547 186.052 264.109 186.505 264.001Z"/><path fill="#6B3C98" d="M243.93 284.859C245.45 285.813 245.918 293.589 245.131 295.119C243.263 293.151 242.637 287.23 243.93 284.859Z"/><path fill="#6B3C98" d="M201.315 256.696C201.67 256.579 201.469 256.589 201.91 256.788C202.374 258.152 203.382 260.375 202.356 261.508L201.886 261.501L201.379 260.903C200.406 258.087 199.844 259.157 198.593 257.42C199.277 256.904 200.403 256.906 201.315 256.696Z"/><path fill="#6B3C98" d="M166.241 249.512C167.993 249.454 172.159 250.396 173.266 251.767L173.149 252.512C171.375 252.196 167.239 251.598 166.093 250.238L166.241 249.512Z"/><path fill="#6B3C98" d="M226.69 290.693C227.946 292.066 229.627 292.023 230.201 292.99C230.075 293.944 229.447 294.591 228.857 295.374C227.668 293.179 226.418 292.821 225.878 291.752C226.247 291.378 226.381 291.133 226.69 290.693Z"/><path fill="#6B3C98" d="M234.189 189.2C234.526 187.826 236.183 183.805 237.333 182.943L237.597 183.006C237.25 185.303 235.611 187.01 235.122 189.858L234.189 189.2Z"/><path fill="#6B3C98" d="M244.017 175.956C244.14 176.069 244.366 176.257 244.407 176.405C244.83 177.938 245.87 179.168 245.399 180.704C244.667 180.768 244.551 180.842 243.868 180.559C243.087 179.361 243.142 177.052 244.017 175.956Z"/><path fill="#75428F" d="M299.677 245.962C300.68 247.412 298.763 250.284 297.398 251.118L297.024 250.718C296.882 249.069 298.561 247.497 299.677 245.962Z"/><path fill="#75428F" d="M249.322 343.246C249.094 344.451 249.945 344.652 249.644 345.922C248.799 346.115 246.823 345.464 246.013 345.127C246.193 344.745 247.703 344.026 248.245 343.711C248.709 343.021 248.708 342.738 248.807 341.946L249.322 343.246Z"/><path fill="#865185" d="M265.241 324.507C265.202 325.198 264.882 325.534 264.573 326.169C265.272 326.296 265.032 326.111 265.398 326.605C265.081 327.951 264.331 328.273 263.612 329.468L263.822 329.955L263.908 330.143L263.486 330.156C261.762 327.411 263.579 326.971 265.241 324.507Z"/><path fill="#865185" d="M191.978 259.555C193.449 259.828 194.563 260.385 194.172 262.023C193.073 262.118 192.436 262.257 191.599 261.479C191.403 260.677 191.656 260.327 191.978 259.555Z"/><path fill="#6B3C98" d="M210.923 215.919C211.136 214.632 210.377 214.218 210.401 212.656L210.713 212.449C212.67 213.623 212.438 214.335 212.119 216.424L210.923 215.919Z"/><path fill="#B68596" d="M248.807 341.946C249.402 340.114 249.209 339.369 249.326 337.54L249.583 337.402C250.645 338.861 250.229 341.822 249.322 343.246L248.807 341.946Z"/><path fill="#6B3C98" d="M284.232 248.334C285.23 249.093 285 252.113 284.156 253.038C283.035 251.574 283.628 249.911 284.232 248.334Z"/><path fill="#865185" d="M261.85 240.801C263.327 241.057 264.008 241.892 263.941 243.331C263.061 243.375 262.602 243.422 261.934 242.895C261.533 242.064 261.691 241.716 261.85 240.801Z"/><path fill="#6B3C98" d="M206.674 249.086C207.556 249.657 207.273 249.276 207.588 250.242C207.415 251.231 207.278 251.316 206.647 252.148C205.982 251.572 205.876 251.571 205.562 250.733C205.642 249.95 206.097 249.659 206.674 249.086Z"/><path fill="#6B3C98" d="M308.767 241.026C309.402 240.899 309.357 240.892 309.952 241.146L309.923 241.46C309.211 242.293 308.826 242.359 307.783 242.814L306.842 242.468L306.66 242.047C307.272 241.368 307.88 241.295 308.767 241.026Z"/><path fill="#75428F" d="M250.589 349.61C251.247 349.641 251.214 349.614 251.795 349.91C252.34 350.831 252.152 351.813 252.113 352.936C251.504 353.005 251.801 353.052 251.228 352.773C250.855 351.575 250.766 350.831 250.589 349.61Z"/><path fill="#75428F" d="M210.923 215.919L212.119 216.424C212.246 217.463 212.331 217.765 211.559 218.417C210.811 218.318 211.148 218.477 210.596 217.778C210.448 216.909 210.594 216.728 210.923 215.919Z"/><path fill="#75428F" d="M225.878 291.752C225.108 291.035 224.459 290.412 224.442 289.304L224.801 289.066C225.628 289.267 226.111 290.019 226.69 290.693C226.381 291.133 226.247 291.378 225.878 291.752Z"/><path fill="#75428F" d="M203.613 257.326C204.723 257.472 205.645 257.981 205.523 259.233C204.688 259.632 204.627 259.599 203.89 259.229C203.444 258.433 203.533 258.228 203.613 257.326Z"/><path fill="#6B3C98" d="M208.425 258.772C208.763 258.675 209.127 258.772 209.371 259.025C209.615 259.277 209.7 259.644 209.591 259.978C209.482 260.312 209.198 260.559 208.852 260.62C208.355 260.708 207.876 260.391 207.762 259.898C207.648 259.406 207.94 258.911 208.425 258.772Z"/><path fill="#75428F" d="M234.189 189.2L235.122 189.858C234.824 190.658 234.603 191.089 233.819 191.434L233.669 191.28C233.437 190.255 233.609 190.426 234.189 189.2Z"/><path fill="#865185" d="M275.194 262.116C275.467 261.989 275.787 262.02 276.031 262.196C276.274 262.373 276.404 262.667 276.37 262.966C276.335 263.265 276.142 263.522 275.865 263.638C275.447 263.813 274.965 263.621 274.782 263.206C274.599 262.791 274.782 262.306 275.194 262.116Z"/><path fill="#A97170" d="M222.541 315.691C225.279 315.607 224.266 316.614 226.429 317.116C228.782 320.53 227.916 319.558 229.176 322.937C229.214 324.103 230.025 324.167 229.883 325.556C228.125 323.593 228.405 322.341 227.607 321.443C225.851 319.467 224.254 317.839 222.541 315.691Z"/><path fill="#563336" d="M367.782 255.847L368.9 255.225C368.757 257.212 367.266 257.357 365.545 258.149C366.293 257.357 367 256.61 367.782 255.847Z"/><path fill="#713816" d="M261.811 340.481C262.461 339.796 262.772 339.439 263.52 338.88L263.931 338.909C263.442 340.219 262.664 340.745 261.348 341.144L261.811 340.481Z"/></svg>