<?xml version="1.0" encoding="utf-8" ?><svg xmlns="http://www.w3.org/2000/svg" xmlns:xlink="http://www.w3.org/1999/xlink" width="1072" height="1072" viewBox="0 0 1072 1072"><path fill="#F7BF35" transform="scale(2.144 2.144)" d="M80.3467 77.7831C83.782 68.0283 87.3958 57.2544 87.1006 46.8364C87.0632 45.5152 86.5612 41.9665 87.9865 41.3656C88.7652 41.0373 90.3098 40.8613 91.1216 41.1478C91.6404 41.3309 91.7179 41.4351 91.9207 41.9361C92.99 44.5769 91.9864 49.0755 92.4854 52.1867C93.7771 60.2407 95.1213 68.4748 98.9384 75.7514C100.059 77.9257 101.251 80.0628 102.511 82.1591C103.234 83.3357 104.177 84.537 104.783 85.7653C107.433 88.7247 109.976 92.0743 112.84 94.8083C118.626 100.65 124.423 106.474 132.2 109.5C134.985 110.584 137.92 111.21 140.697 112.29C145.04 113.979 148.99 116.023 153.752 116.067C156.264 116.09 164.816 115.329 166.309 116.702C167.277 117.577 169.447 117.434 170.686 117.477C178.282 117.739 185.958 117.498 193.564 117.498L238.778 117.499L376.409 117.5L410.013 117.498C416.342 117.499 422.822 117.211 429.13 117.695C431.676 117.89 434.415 118.184 436.825 119.081C448.314 123.36 454.886 133.559 455.483 145.568C455.934 154.63 455.503 163.922 455.501 173.006L455.461 223.224C456.962 225.996 468.529 236.708 471.628 239.8C476.551 244.712 481.36 249.974 486.51 254.633C484.613 257.185 482.287 258.431 479.141 258.871C476.204 259.282 473.073 259.052 470.109 259.041L455.406 259.007C455.683 263.569 455.52 268.19 455.511 272.76C455.497 279.412 455.559 286.07 455.464 292.722C455.403 296.975 454.551 323.833 455.501 326.181C456.023 328.077 456.054 339.597 455.611 341.805C455.297 344.403 455.261 346.865 454.622 349.445C452.345 358.472 445.743 365.783 436.996 368.967C429.299 371.737 420.255 370.853 412.185 370.848L392.878 370.841L318.238 370.865L295.088 370.853C290.533 370.84 285.914 370.678 281.364 370.875C280.575 370.909 279.798 370.96 279.119 371.399C275.18 373.949 271.569 377.208 267.907 380.145L247.455 396.537L173.854 455.253L173.798 397.606L173.793 380.576C173.792 377.348 173.555 373.935 174.03 370.743C163.566 371.275 152.27 370.873 141.693 370.892C133.31 370.907 122.844 371.499 114.686 370.516C111.121 370.086 107.736 369.155 104.551 367.472C97.8983 363.965 92.9268 357.941 90.7465 350.743C90.1771 348.815 90.075 346.871 90.0177 344.874C89.7876 336.85 89.9906 328.768 89.9903 320.738L89.9834 274.366L89.9817 224.259C89.9823 215.203 89.8094 206.107 90.0384 197.054C90.055 196.395 90.0736 196.036 90.3818 195.462C89.4518 194.545 87.6434 194.88 87.1361 193.443C86.2824 191.025 87.1558 184.896 87.0189 181.984C86.6808 174.797 81.5246 162.096 78.0919 155.791C73.1636 150.184 69.925 143.514 64.7608 138.07C62.5612 136.884 60.0591 134.242 57.97 132.685C55.02 130.486 51.4853 128.785 48.2051 127.12C43.7621 125.227 38.5381 124.217 33.8449 123.081C32.1662 122.675 30.0402 122.68 28.5817 121.766C28.4926 121.771 28.4037 121.781 28.3145 121.783C27.0102 121.816 25.6306 121.552 24.3151 121.487C21.6417 121.355 18.6703 121.548 16.0586 121.1C15.1116 120.938 14.0988 120.615 13.4059 119.918C13.0162 119.525 12.8515 119.071 12.8944 118.518C12.9821 117.386 13.8213 116.73 14.5856 116.001C28.0379 116.173 41.2423 112.69 53.2308 106.699C56.0625 105.371 58.6165 103.519 61.4092 102.113C67.4813 97.8405 73.7732 89.1262 77.7969 82.8822C78.6922 81.1996 79.5491 79.5144 80.3467 77.7831Z"/><path fill="#59319F" transform="scale(2.144 2.144)" d="M80.3467 77.7831C83.782 68.0283 87.3958 57.2544 87.1006 46.8364C87.0632 45.5152 86.5612 41.9665 87.9865 41.3656C88.7652 41.0373 90.3098 40.8613 91.1216 41.1478C91.6404 41.3309 91.7179 41.4351 91.9207 41.9361C92.99 44.5769 91.9864 49.0755 92.4854 52.1867C93.7771 60.2407 95.1213 68.4748 98.9384 75.7514C100.059 77.9257 101.251 80.0628 102.511 82.1591C103.234 83.3357 104.177 84.537 104.783 85.7653C107.433 88.7247 109.976 92.0743 112.84 94.8083C118.626 100.65 124.423 106.474 132.2 109.5C134.985 110.584 137.92 111.21 140.697 112.29C145.04 113.979 148.99 116.023 153.752 116.067C156.264 116.09 164.816 115.329 166.309 116.702C166.616 118.48 166.23 119.812 165.728 121.489C157.74 121.437 145.395 121.574 137.957 124.17C132.913 125.931 127.874 129.208 123.582 132.327C120.625 134.475 117.586 136.523 114.977 139.099C114.457 139.607 113.949 140.127 113.453 140.659C111.677 143.391 109.427 145.741 107.172 148.079C101.437 155.232 97.5735 161.992 94.3973 170.631C93.5512 172.932 92.5709 175.364 92.2014 177.796C91.7759 180.596 91.9168 183.609 91.9485 186.442C91.9728 188.615 92.5086 194.406 90.3818 195.462C89.4518 194.545 87.6434 194.88 87.1361 193.443C86.2824 191.025 87.1558 184.896 87.0189 181.984C86.6808 174.797 81.5246 162.096 78.0919 155.791C73.1636 150.184 69.925 143.514 64.7608 138.07C62.5612 136.884 60.0591 134.242 57.97 132.685C55.02 130.486 51.4853 128.785 48.2051 127.12C43.7621 125.227 38.5381 124.217 33.8449 123.081C32.1662 122.675 30.0402 122.68 28.5817 121.766C28.4926 121.771 28.4037 121.781 28.3145 121.783C27.0102 121.816 25.6306 121.552 24.3151 121.487C21.6417 121.355 18.6703 121.548 16.0586 121.1C15.1116 120.938 14.0988 120.615 13.4059 119.918C13.0162 119.525 12.8515 119.071 12.8944 118.518C12.9821 117.386 13.8213 116.73 14.5856 116.001C28.0379 116.173 41.2423 112.69 53.2308 106.699C56.0625 105.371 58.6165 103.519 61.4092 102.113C67.4813 97.8405 73.7732 89.1262 77.7969 82.8822C78.6922 81.1996 79.5491 79.5144 80.3467 77.7831Z"/><path fill="#7758B7" transform="scale(2.144 2.144)" d="M28.5817 121.766C33.0355 120.632 37.3366 121.968 41.6318 123.106C43.266 123.539 45.2376 123.888 46.6912 124.772C47.4106 125.209 47.7927 126.374 48.2051 127.12C43.7621 125.227 38.5381 124.217 33.8449 123.081C32.1662 122.675 30.0402 122.68 28.5817 121.766Z"/><path fill="#A185D0" transform="scale(2.144 2.144)" d="M64.7608 138.07C65.9349 138.62 67.1047 139.15 68.1225 139.968C72.1404 143.197 76.2017 150.366 77.9048 155.21C77.9723 155.402 78.0312 155.596 78.0919 155.791C73.1636 150.184 69.925 143.514 64.7608 138.07Z"/><path fill="#7758B7" transform="scale(2.144 2.144)" d="M104.783 85.7653C107.433 88.7247 109.976 92.0743 112.84 94.8083C112.372 94.9568 111.883 95.1465 111.386 95.0635C109.772 94.7944 108.038 93.0179 107.073 91.7984C105.677 90.0348 104.508 88.0855 104.783 85.7653Z"/><path fill="#905F86" transform="scale(2.144 2.144)" d="M107.172 148.079C106.933 146.941 107.02 146.297 107.589 145.261C108.727 143.185 111.19 141.355 113.453 140.659C111.677 143.391 109.427 145.741 107.172 148.079Z"/><path fill="#7758B7" transform="scale(2.144 2.144)" d="M53.2308 106.699C56.0625 105.371 58.6165 103.519 61.4092 102.113C60.3211 104.906 58.941 105.654 56.3455 106.976L53.2308 106.699Z"/><path fill="#7758B7" transform="scale(2.144 2.144)" d="M80.3467 77.7831C80.7349 78.7353 81.3918 80.0362 81.051 81.0524C80.3422 82.0591 78.8922 82.3768 77.7969 82.8822C78.6922 81.1996 79.5491 79.5144 80.3467 77.7831Z"/><path fill="#653CA6" transform="scale(2.144 2.144)" d="M95.7655 115.042C95.9303 114.31 96.2223 113.587 96.4238 112.857C96.3233 112.552 96.228 112.255 96.1612 111.941C95.9423 110.909 95.5518 108.991 96.1503 108.065L96.5981 108.258C97.4428 109.276 98.7059 110.747 98.8038 112.111C99.4046 113.06 99.8268 113.962 100.209 115.018L100.026 115.5C98.748 116.002 97.5601 116.516 96.3646 117.198C95.7768 117.09 96.0031 117.237 95.6645 116.791C95.6629 116.196 95.6208 115.622 95.7655 115.042Z"/><path fill="#7758B7" transform="scale(2.144 2.144)" d="M95.7655 115.042C95.9303 114.31 96.2223 113.587 96.4238 112.857C96.3233 112.552 96.228 112.255 96.1612 111.941C95.9423 110.909 95.5518 108.991 96.1503 108.065L96.5981 108.258C97.4428 109.276 98.7059 110.747 98.8038 112.111C97.8111 112.898 97.3648 113.762 96.7973 114.858C96.3435 115.06 96.2561 115.094 95.7655 115.042Z"/><path fill="#653CA6" transform="scale(2.144 2.144)" d="M70.3632 130.335C71.3213 130.562 71.8573 131.305 72.4683 132.016C73.511 133.23 79.6572 141.064 79.9088 142.133C79.9797 142.434 79.8606 142.75 79.8365 143.059C79.0674 142.575 78.3059 142.084 77.6631 141.435C76.4119 140.173 71.3031 133.625 70.4527 132.145C70.0481 131.441 70.1805 131.1 70.3632 130.335Z"/><path fill="#653CA6" transform="scale(2.144 2.144)" d="M62.647 120.67C64.0881 120.791 66.1175 122.057 67.0616 123.117C67.2813 123.908 67.0811 124.02 66.7177 124.728C66.4431 124.671 66.1674 124.617 65.8969 124.543C64.4365 124.142 62.9014 123.565 62.1022 122.215C62.063 121.403 62.2066 121.322 62.647 120.67Z"/><path fill="#653CA6" transform="scale(2.144 2.144)" d="M115.344 112.076C115.96 112.408 116.247 112.53 116.562 113.189C116.59 115.119 116.47 117.563 115.673 119.346C115.524 119.324 115.313 119.303 115.177 119.243C114.737 119.048 114.603 118.794 114.482 118.347C114.02 116.632 114.48 113.595 115.344 112.076Z"/><path fill="#7758B7" transform="scale(2.144 2.144)" d="M58.8058 123.391C59.0827 123.398 59.2588 123.385 59.5199 123.442C60.7069 123.702 62.5066 125.158 63.1847 126.133C63.5394 126.642 63.4095 126.652 63.3084 127.222C62.2449 127.14 60.4793 126.041 59.6781 125.355C58.9469 124.729 58.9015 124.291 58.8058 123.391Z"/><path fill="#7758B7" transform="scale(2.144 2.144)" d="M72.2896 114.872C72.5724 114.977 72.7489 114.99 72.9431 115.207C73.9196 116.297 74.034 119.189 73.9523 120.578C73.1788 120.081 72.7416 119.237 72.2542 118.477C72.2178 117.265 72.2255 116.084 72.2896 114.872Z"/><path fill="#653CA6" transform="scale(2.144 2.144)" d="M86.4394 137.063C86.8807 137.284 87.0966 137.495 87.3244 137.943C87.9147 139.105 87.8582 140.77 87.4256 141.967C87.1549 141.724 86.861 141.474 86.6696 141.158C85.901 139.891 86.1109 138.418 86.4394 137.063Z"/><path fill="#7758B7" transform="scale(2.144 2.144)" d="M89.8424 163.699C90.0329 163.884 90.1368 164.141 90.2638 164.373C90.268 165.822 89.8257 167.252 89.3374 168.607L89.0409 168.374C88.9729 166.852 89.2484 165.099 89.8424 163.699Z"/><path fill="#171616" transform="scale(2.144 2.144)" d="M327.415 278.777C328.952 278.182 330.513 277.648 332.153 277.421C334.886 277.041 337.936 277.583 339.901 279.665C341.646 281.515 341.596 283.784 342.513 285.996C345.161 292.382 351.033 297.991 356.413 302.107C372.804 314.648 395.841 323.652 416.237 326.501C429.437 328.344 442.338 327.947 455.501 326.181C456.023 328.077 456.054 339.597 455.611 341.805C453.974 342.009 452.335 342.202 450.694 342.385C439.867 343.546 428.943 343.489 418.128 342.214C413.804 341.705 409.502 340.683 405.249 339.755C390.406 336.518 375.598 332.295 362.446 324.427C358.111 321.834 353.856 318.352 349.918 315.194C341.951 308.805 333.124 301.302 329.778 291.351C328.411 287.287 327.879 283.019 327.415 278.777Z"/><path fill="#171616" transform="scale(2.144 2.144)" d="M359.902 164.999C360.618 164.961 361.328 164.997 362.024 165.196C363.462 165.609 364.235 166.881 364.958 168.085C364.926 170.693 364.301 173.409 363.959 176.001C362.781 184.932 362.4 194.093 367.371 202.011C370.725 207.354 376.202 210.809 382.309 212.205C395.361 215.189 411.19 209.334 418.451 197.908C419.911 195.611 420.857 193.186 421.725 190.621C422.106 189.495 422.416 188.163 422.962 187.118C423.208 186.647 423.605 186.288 424.064 186.029C425.128 185.428 427.181 184.923 428.369 185.382C429.177 185.695 429.662 186.204 430.048 186.963C431.43 189.683 430.274 192.645 429.437 195.323C429.045 196.385 428.612 197.431 428.139 198.459C423.758 208.034 415.136 215.291 405.334 218.891C395.542 222.487 383.501 223.189 373.903 218.668C365.665 214.789 359.565 208.293 356.486 199.683C355.556 197.119 354.93 194.455 354.62 191.746C354.061 186.647 354.575 172.032 356.8 167.621C357.568 166.098 358.312 165.549 359.902 164.999Z"/><path fill="#171616" transform="scale(2.144 2.144)" d="M381.612 229.899C382.033 229.896 382.439 229.955 382.857 230.002C383.274 230.358 383.415 230.432 383.465 231.02C383.67 233.475 376.823 246.804 375.273 248.86C374.547 248.745 374.259 248.614 373.706 248.129C373.201 247.201 373.187 246.217 373.355 245.191C374.083 240.732 377.996 232.615 381.612 229.899Z"/><path fill="#171616" transform="scale(2.144 2.144)" d="M399.462 231.337C400.021 231.431 400.395 231.541 400.845 231.906C402.983 233.641 403.991 237.368 404.173 240.034C404.339 242.468 404.597 247.282 402.978 249.165C402.333 249.203 401.877 249.272 401.3 248.915C399.601 246.629 398.374 238.011 398.343 234.967C398.328 233.539 398.439 232.397 399.462 231.337Z"/><path fill="#171616" transform="scale(2.144 2.144)" d="M344.365 206.547C344.383 206.546 344.402 206.542 344.42 206.546C345.5 206.82 346.814 208.717 347.609 209.6C343.835 211.914 340.02 213.909 335.812 215.309C335.501 215.389 335.33 215.446 334.991 215.47C334.401 215.511 333.947 215.382 333.503 215.016C333.02 213.132 335.081 212.177 335.213 210.513C335.233 210.26 335.184 209.886 335.167 209.623C335.158 209.482 335.146 209.341 335.135 209.199C336.117 208.014 342.411 207.018 344.365 206.547Z"/><path fill="#171616" transform="scale(2.144 2.144)" d="M417.182 226.837L417.573 226.82C420.96 228.402 423.734 231.348 425.866 234.355C424.257 235.27 423.231 236.02 422.105 237.497C421.174 236.984 420.232 236.449 419.437 235.736C417.821 234.289 413.582 230.18 413.478 228.003C414.394 226.759 415.505 227.525 416.747 227.024C416.893 226.965 417.037 226.899 417.182 226.837Z"/><path fill="#171616" transform="scale(2.144 2.144)" d="M359.32 220.901C360.692 221.013 361.604 222.847 362.594 223.776L362.789 223.956C359.246 227.349 355.343 230.424 351.54 233.518C350.853 233.995 350.307 234.494 349.427 234.46C348.855 234.207 348.9 234.2 348.664 233.613C349.128 230.384 356.748 223.336 359.32 220.901Z"/><path fill="#171616" transform="scale(2.144 2.144)" d="M326.78 188.504C328.625 188.382 337.128 189.769 338.576 190.701C339.128 191.055 339.555 191.618 339.642 192.282C339.736 193.004 339.516 193.451 339.126 194.028C338.441 194.446 338.086 194.473 337.311 194.497C334.478 194.659 331.409 195.054 328.595 194.622C327.658 194.479 326.998 194.318 326.434 193.534L326.552 192.878C327.06 192.111 327.774 191.787 328.561 191.346C327.782 190.909 327.067 190.526 326.43 189.892C326.275 189.149 326.371 189.158 326.78 188.504Z"/></svg>